<svg width="1024" height="1024" viewBox="0 0 1024 1024" xmlns="http://www.w3.org/2000/svg">
  <defs>
    <!-- Simple gradients -->
    <linearGradient id="baseGradient" x1="0%" y1="0%" x2="100%" y2="100%">
      <stop offset="0%" stop-color="#2B2D42" />
      <stop offset="100%" stop-color="#121420" />
    </linearGradient>
    
    <linearGradient id="paperGradient" x1="0%" y1="0%" x2="100%" y2="100%">
      <stop offset="0%" stop-color="#F8F9FA" />
      <stop offset="100%" stop-color="#E9ECEF" />
    </linearGradient>
    
    <linearGradient id="lineGradient" x1="0%" y1="0%" x2="100%" y2="0%">
      <stop offset="0%" stop-color="#ADB5BD" />
      <stop offset="100%" stop-color="#6C757D" />
    </linearGradient>
    
    <!-- Shadow effects -->
    <filter id="shadow" x="-10%" y="-10%" width="120%" height="120%">
      <feDropShadow dx="0" dy="10" stdDeviation="15" flood-color="#000000" flood-opacity="0.4"/>
    </filter>
    
    <!-- Paper texture -->
    <filter id="paperTexture" x="0%" y="0%" width="100%" height="100%">
      <feTurbulence type="fractalNoise" baseFrequency="0.04" numOctaves="3" result="noise"/>
      <feColorMatrix type="matrix" values="0 0 0 0 0 0 0 0 0 0 0 0 0 0 0 0 0 0 0.05 0" in="noise" result="noiseFinal"/>
      <feComposite operator="in" in="SourceGraphic" in2="noiseFinal"/>
    </filter>
    
    <!-- Page curl effect -->
    <filter id="pageCurl" x="0%" y="0%" width="100%" height="100%">
      <feDropShadow dx="-3" dy="3" stdDeviation="2" flood-color="#000000" flood-opacity="0.3"/>
    </filter>
  </defs>
  
  <!-- App icon base with rounded corners -->
  <rect x="112" y="112" width="800" height="800" rx="180" ry="180" fill="url(#baseGradient)" />
  
  <!-- Paper background with slight shadow -->
  <g filter="url(#shadow)" transform="translate(512, 512) rotate(2) translate(-512, -512)">
    <!-- Main paper -->
    <rect x="212" y="212" width="600" height="600" rx="20" ry="20" 
          fill="url(#paperGradient)" 
          filter="url(#paperTexture)" />
          
    <!-- Subtle page curl at top right corner -->
    <path d="M752,212 L812,272 L812,212 Z" 
          fill="#CED4DA" 
          filter="url(#pageCurl)" />
  </g>
  
  <!-- Illegible text lines -->
  <g transform="translate(512, 512) rotate(2) translate(-512, -512)">
    <!-- Title line (thicker) -->
    <rect x="262" y="282" width="400" height="12" rx="6" ry="6" 
          fill="url(#lineGradient)" 
          opacity="0.9" />
          
    <!-- Regular lines -->
    <rect x="262" y="332" width="500" height="6" rx="3" ry="3" 
          fill="url(#lineGradient)" 
          opacity="0.7" />
          
    <rect x="262" y="372" width="480" height="6" rx="3" ry="3" 
          fill="url(#lineGradient)" 
          opacity="0.7" />
          
    <rect x="262" y="412" width="500" height="6" rx="3" ry="3" 
          fill="url(#lineGradient)" 
          opacity="0.7" />
          
    <rect x="262" y="452" width="460" height="6" rx="3" ry="3" 
          fill="url(#lineGradient)" 
          opacity="0.7" />
          
    <rect x="262" y="492" width="500" height="6" rx="3" ry="3" 
          fill="url(#lineGradient)" 
          opacity="0.7" />
          
    <rect x="262" y="532" width="440" height="6" rx="3" ry="3" 
          fill="url(#lineGradient)" 
          opacity="0.7" />
          
    <rect x="262" y="572" width="500" height="6" rx="3" ry="3" 
          fill="url(#lineGradient)" 
          opacity="0.7" />
          
    <!-- Audio waveform visual at bottom -->
    <path d="M262,632 C292,612 322,652 352,632 C382,612 412,652 442,632 C472,612 502,652 532,632 C562,612 592,652 622,632 C652,612 682,652 712,632 C742,612 762,652 762,632" 
          stroke="url(#lineGradient)" 
          stroke-width="6" 
          stroke-linecap="round" 
          fill="none" 
          opacity="0.8" />
  </g>
  
  <!-- Subtle highlight on top edge -->
  <rect x="212" y="212" width="600" height="25" rx="20" ry="20" 
        fill="white" opacity="0.15" />
</svg>